<?xml version="1.0" encoding="utf-8"?>
<!-- Generator: Adobe Illustrator 18.0.0, SVG Export Plug-In . SVG Version: 6.00 Build 0)  -->
<!DOCTYPE svg PUBLIC "-//W3C//DTD SVG 1.1//EN" "http://www.w3.org/Graphics/SVG/1.1/DTD/svg11.dtd">
<svg version="1.1" id="Layer_1" xmlns="http://www.w3.org/2000/svg" xmlns:xlink="http://www.w3.org/1999/xlink" x="0px" y="0px"
	 viewBox="0 0 1280 800" enable-background="new 0 0 1280 800" xml:space="preserve">
<circle fill="none" stroke="#1A4DA6" stroke-width="2" stroke-miterlimit="10" cx="181.1" cy="240.5" r="49.4"/>
<circle fill="none" stroke="#1A4DA6" stroke-width="2" stroke-miterlimit="10" cx="499.4" cy="272.2" r="59.1"/>
<circle fill="none" stroke="#1A4DA6" stroke-width="2" stroke-miterlimit="10" cx="764.6" cy="275.2" r="29.3"/>
<circle fill="none" stroke="#1A4DA6" stroke-width="2" stroke-miterlimit="10" cx="436" cy="122.2" r="36"/>
<circle fill="none" stroke="#1A4DA6" stroke-width="2" stroke-miterlimit="10" cx="360.3" cy="673.4" r="79.9"/>
<circle fill="none" stroke="#1A4DA6" stroke-width="2" stroke-miterlimit="10" cx="617" cy="478.9" r="24.4"/>
<circle fill="none" stroke="#1A4DA6" stroke-width="2" stroke-miterlimit="10" cx="1054.9" cy="507.3" r="107.3"/>
<circle fill="none" stroke="#1A4DA6" stroke-width="2" stroke-miterlimit="10" cx="992.7" cy="219.1" r="28"/>
<circle fill="none" stroke="#1A4DA6" stroke-width="2" stroke-miterlimit="10" cx="818.1" cy="537.6" r="30.3"/>
<circle fill="none" stroke="#1A4DA6" stroke-width="2" stroke-miterlimit="10" cx="403.6" cy="458.1" r="14.6"/>
<circle fill="none" stroke="#1A4DA6" stroke-width="2" stroke-miterlimit="10" cx="134.1" cy="506.9" r="43.9"/>
<circle fill="none" stroke="#1A4DA6" stroke-width="2" stroke-miterlimit="10" cx="720.1" cy="703.9" r="60.4"/>
<circle fill="none" stroke="#1A4DA6" stroke-width="2" stroke-miterlimit="10" cx="904.2" cy="364.9" r="40.9"/>
<circle fill="none" stroke="#1A4DA6" stroke-width="2" stroke-miterlimit="10" cx="849.4" cy="119.7" r="40.9"/>
<circle fill="none" stroke="#1A4DA6" stroke-width="2" stroke-miterlimit="10" cx="101.5" cy="87.7" r="34.5"/>
<circle fill="none" stroke="#1A4DA6" stroke-width="2" stroke-miterlimit="10" cx="53" cy="374.6" r="31.1"/>
<circle fill="none" stroke="#1A4DA6" stroke-width="2" stroke-miterlimit="10" cx="134.7" cy="694.1" r="50.6"/>
<circle fill="none" stroke="#1A4DA6" stroke-width="2" stroke-miterlimit="10" cx="334.7" cy="431.9" r="26.2"/>
<circle fill="none" stroke="#1A4DA6" stroke-width="2" stroke-miterlimit="10" cx="580.5" cy="597.2" r="46.3"/>
<circle fill="none" stroke="#1A4DA6" stroke-width="2" stroke-miterlimit="10" cx="211.6" cy="369.7" r="11.6"/>
<circle fill="none" stroke="#1A4DA6" stroke-width="2" stroke-miterlimit="10" cx="1178" cy="366.7" r="15.9"/>
<circle fill="none" stroke="#1A4DA6" stroke-width="2" stroke-miterlimit="10" cx="1114.9" cy="135.9" r="16.2"/>
<circle fill="none" stroke="#1A4DA6" stroke-width="2" stroke-miterlimit="10" cx="626.6" cy="167.7" r="66.5"/>
<circle fill="none" stroke="#1A4DA6" stroke-width="2" stroke-miterlimit="10" cx="1246.3" cy="52" r="26.8"/>
<circle fill="none" stroke="#1A4DA6" stroke-width="2" stroke-miterlimit="10" cx="1008.5" cy="61.8" r="26.8"/>
<circle fill="none" stroke="#1A4DA6" stroke-width="2" stroke-miterlimit="10" cx="1155.2" cy="723.7" r="29.6"/>
<circle fill="none" stroke="#1A4DA6" stroke-width="2" stroke-miterlimit="10" cx="956.7" cy="719.1" r="25"/>
<circle fill="none" stroke="#1A4DA6" stroke-width="2" stroke-miterlimit="10" cx="700" cy="360" r="21.3"/>
<circle fill="none" stroke="#1A4DA6" stroke-width="2" stroke-miterlimit="10" cx="253.9" cy="96.3" r="23.5"/>
<circle fill="none" stroke="#1A4DA6" stroke-width="2" stroke-miterlimit="10" cx="351.2" cy="250.2" r="16.5"/>
<circle fill="none" stroke="#1A4DA6" stroke-width="2" stroke-miterlimit="10" cx="790.2" cy="433.8" r="9.8"/>
<circle fill="none" stroke="#1A4DA6" stroke-width="2" stroke-miterlimit="10" cx="1069.5" cy="309.4" r="14.6"/>
<circle fill="none" stroke="#1A4DA6" stroke-width="2" stroke-miterlimit="10" cx="1174.4" cy="297.2" r="7.3"/>
<circle fill="none" stroke="#1A4DA6" stroke-width="2" stroke-miterlimit="10" cx="1246.9" cy="555.1" r="27.4"/>
<circle fill="none" stroke="#1A4DA6" stroke-width="2" stroke-miterlimit="10" cx="901.2" cy="616.7" r="11"/>
<circle fill="none" stroke="#1A4DA6" stroke-width="2" stroke-miterlimit="10" cx="326.9" cy="532.6" r="5"/>
<circle fill="none" stroke="#1A4DA6" stroke-width="2" stroke-miterlimit="10" cx="542" cy="382.5" r="7.9"/>
<circle fill="none" stroke="#1A4DA6" stroke-width="2" stroke-miterlimit="10" cx="399.4" cy="362.4" r="4.3"/>
<circle fill="none" stroke="#1A4DA6" stroke-width="2" stroke-miterlimit="10" cx="468.3" cy="563" r="12.2"/>
<ellipse fill="none" stroke="#1A4DA6" stroke-width="2" stroke-miterlimit="10" cx="206" cy="756.3" rx="0" ry="3"/>
<circle fill="none" stroke="#1A4DA6" stroke-width="2" stroke-miterlimit="10" cx="37.2" cy="710.6" r="6.7"/>
<circle fill="none" stroke="#1A4DA6" stroke-width="2" stroke-miterlimit="10" cx="39.6" cy="541.7" r="9.1"/>
<circle fill="none" stroke="#1A4DA6" stroke-width="2" stroke-miterlimit="10" cx="533.8" cy="739.5" r="8.2"/>
<circle fill="none" stroke="#1A4DA6" stroke-width="2" stroke-miterlimit="10" cx="711.3" cy="561.5" r="6.4"/>
<circle fill="none" stroke="#1A4DA6" stroke-width="2" stroke-miterlimit="10" cx="860.6" cy="735" r="11.3"/>
<circle fill="none" stroke="#1A4DA6" stroke-width="2" stroke-miterlimit="10" cx="1079.2" cy="648.4" r="9.8"/>
<circle fill="none" stroke="#1A4DA6" stroke-width="2" stroke-miterlimit="10" cx="734.9" cy="108.9" r="8.1"/>
<circle fill="none" stroke="#1A4DA6" stroke-width="2" stroke-miterlimit="10" cx="60.9" cy="193.6" r="12.2"/>
<circle fill="none" stroke="#1A4DA6" stroke-width="2" stroke-miterlimit="10" cx="22.5" cy="23.4" r="5.5"/>
<circle fill="none" stroke="#1A4DA6" stroke-width="2" stroke-miterlimit="10" cx="640.2" cy="306" r="23.2"/>
<circle fill="none" stroke="#1A4DA6" stroke-width="2" stroke-miterlimit="10" cx="871.6" cy="202" r="11"/>
<circle fill="none" stroke="#1A4DA6" stroke-width="2" stroke-miterlimit="10" cx="938.4" cy="41.7" r="6.7"/>
<circle fill="none" stroke="#1A4DA6" stroke-width="2" stroke-miterlimit="10" cx="1217.7" cy="201.4" r="43.3"/>
</svg>
