<?xml version="1.0" encoding="utf-8"?>
<!-- Generator: Adobe Illustrator 18.0.0, SVG Export Plug-In . SVG Version: 6.00 Build 0)  -->
<!DOCTYPE svg PUBLIC "-//W3C//DTD SVG 1.1//EN" "http://www.w3.org/Graphics/SVG/1.1/DTD/svg11.dtd">
<svg version="1.1" id="Layer_1" xmlns="http://www.w3.org/2000/svg" xmlns:xlink="http://www.w3.org/1999/xlink" x="0px" y="0px"
	 viewBox="0 0 900 200" enable-background="new 0 0 900 200" xml:space="preserve" class="jonathan-chen-svg">
<g>
	<path d="M46.8,82.1l-9.1,8.7c-0.9-2.9-1.3-5.8-1.3-8.7c0-9.6,3.6-17.3,10.7-23.1s16.6-8.7,28.4-8.7H80c-1.7,8.5-2.7,14.3-3,17.2
		L72,112c-1.5,13.2-5.1,22.7-10.7,28.7c-6.4,6.7-14,10.1-22.9,10.1c-8.4,0-14.5-4.1-18.3-12.4l8.9-6.8c1.9,9.5,7.1,14.3,15.7,14.3
		c5.3,0,9.3-2,12-6.1c2.7-4.1,4.5-10.9,5.6-20.6l6.9-62h-1.7c-15.5,0-23.2,5.1-23.2,15.4C44.2,75.7,45,78.9,46.8,82.1z"/>
	<path d="M100.2,126.9c-8.4,0-12.6-5.5-12.6-16.6c0-8.9,3.3-17.6,9.8-25.8c6.6-8.3,13.4-12.4,20.4-12.4c8.5,0,12.7,5.5,12.7,16.6
		c0,9-3.3,17.6-9.8,25.9C114.2,122.8,107.4,126.9,100.2,126.9z M107,120.7c4.3,0,7.9-2.4,10.8-7.2c2.9-4.8,4.3-10.7,4.3-17.8
		c0-11.6-3.6-17.4-10.8-17.4c-4.2,0-7.8,2.4-10.7,7.2c-2.9,4.8-4.3,10.7-4.3,17.8C96.2,114.9,99.8,120.7,107,120.7z"/>
	<path d="M152,123.5l-8.4,3.4l0.2-1.6l0.4-4.1l0.4-3.9l2.9-25.9l0.3-3c0.2-2.3,0.3-4.2,0.3-5.6c0-2.4-0.6-3.6-1.8-3.6
		c-2.8,0-5.8,3.2-9,9.5c-0.9-0.7-1.3-1.3-1.3-1.8c0-2.2,2-5.3,6.1-9.1c4.1-3.9,7.3-5.8,9.6-5.8c3.2,0,4.8,2,4.8,6.1
		c0,1-0.1,2.4-0.3,4.2l-0.4,4.5l-0.5,3.8l-0.5,4c4.4-6.6,9.2-12,14.4-16.2c5.2-4.3,9.7-6.4,13.4-6.4c3.6,0,5.4,2.5,5.4,7.5
		c0,1.5-0.2,3.8-0.6,6.9l-3,20.8c-0.6,4.2-0.9,7.5-0.9,9.9c0,1.9,0.5,2.9,1.6,2.9c2.6,0,5.7-3.4,9.5-10.2c0.9,0.6,1.3,1.1,1.3,1.7
		c0,2.4-2.1,5.6-6.2,9.5c-4.2,3.9-7.5,5.9-10.2,5.9c-2.9,0-4.4-2.1-4.4-6.3c0-3.1,0.4-7.3,1.2-12.7l2-13.5c0.6-4.4,1-7.9,1-10.4
		c0-2.9-1-4.4-3.1-4.4c-4.8,0-9.6,3.2-14.5,9.7c-4.9,6.5-7.7,13.4-8.6,20.8L152,123.5z"/>
	<path d="M236.2,103.3c-4.2,6.9-8.8,12.6-13.9,17c-5,4.4-9.4,6.6-13.1,6.6c-5.1,0-7.6-4.1-7.6-12.3c0-11.3,3.7-21.1,11.1-29.4
		c7.4-8.3,16.2-12.4,26.4-12.4c3.9,0,7.2,0.5,9.9,1.5c-0.2,0.7-0.3,1.1-0.3,1.2l-0.7,3c-0.4,2-0.7,3.2-0.7,3.6l-3.6,24.7l-0.5,3.6
		c-0.5,3.5-0.7,5.9-0.7,7.1c0,1.6,0.5,2.4,1.4,2.4c3.1,0,6.3-3.5,9.6-10.4c1,0.6,1.5,1.2,1.5,1.8c0,1.3-1.6,3.9-4.8,7.9
		c-4.4,5.4-8.4,8-12.1,8c-2.7,0-4.1-1.8-4.1-5.5c0-1.1,0.1-2.7,0.4-4.6l0.6-4.5l0.7-4.9L236.2,103.3z M239.4,81.2
		c-3.4-1.9-6.8-2.8-10.3-2.8c-5.2,0-9.6,3.2-13.1,9.5s-5.3,14.2-5.3,23.7c0,4.8,1.4,7.3,4.3,7.3c3.3,0,7.3-2.5,12-7.6
		c6.3-6.8,10.2-14.8,11.5-24L239.4,81.2z"/>
	<path d="M277.7,79.9l-2.7,24.7c-0.5,4.4-0.7,7.7-0.7,9.8c0,4.2,1.4,6.3,4.3,6.3c3.1,0,6.3-2.5,9.6-7.6c0.6,0.7,0.8,1.3,0.8,1.9
		c0,2.1-1.8,4.6-5.5,7.5c-3.7,2.9-6.8,4.4-9.5,4.4c-5.3,0-7.9-3.4-7.9-10.2c0-2.5,0.3-6.5,0.9-12.1l2.7-24.7H258l6.5-6.5h5.9
		l1.2-10.2l8.2-2.7l-1.4,12.9h23.7l-6.5,6.5H277.7z"/>
	<path d="M315.3,94.6c4.4-6.6,9.2-12,14.4-16.2c5.2-4.3,9.7-6.4,13.4-6.4c3.6,0,5.4,2.5,5.4,7.5c0,1.5-0.2,3.8-0.6,6.9l-3,20.8
		c-0.6,4.2-0.9,7.5-0.9,9.9c0,1.9,0.5,2.9,1.6,2.9c2.6,0,5.7-3.4,9.5-10.2c0.9,0.6,1.4,1.1,1.4,1.7c0,2.4-2.1,5.6-6.2,9.5
		c-4.2,3.9-7.5,5.9-10.1,5.9c-2.9,0-4.4-2.1-4.4-6.3c0-3.1,0.4-7.3,1.2-12.7l1.9-13.5c0.6-4.4,0.9-8,0.9-10.6c0-2.9-1-4.3-3.1-4.3
		c-4.8,0-9.6,3.2-14.4,9.7c-4.9,6.5-7.7,13.4-8.6,20.8l-1.5,13.4l-8.4,3.4l0.2-1.6l0.4-4.1l0.4-3.9l5.4-49
		c1.3-11.6,5.6-21.4,12.8-29.6c7.3-8.2,15.4-12.3,24.3-12.3c1.9,0,3.7,0.2,5.4,0.6l-8.2,8c-2.1-0.6-4.1-0.9-6-0.9
		c-11.1,0-17.5,8.6-19.5,25.9L315.3,94.6z"/>
	<path d="M396.3,103.3c-4.2,6.9-8.8,12.6-13.9,17c-5,4.4-9.4,6.6-13.1,6.6c-5.1,0-7.6-4.1-7.6-12.3c0-11.3,3.7-21.1,11.1-29.4
		c7.4-8.3,16.2-12.4,26.4-12.4c3.9,0,7.2,0.5,9.9,1.5c-0.2,0.7-0.3,1.1-0.3,1.2l-0.7,3c-0.4,2-0.7,3.2-0.7,3.6l-3.6,24.7l-0.5,3.6
		c-0.5,3.5-0.7,5.9-0.7,7.1c0,1.6,0.5,2.4,1.4,2.4c3.1,0,6.3-3.5,9.6-10.4c1,0.6,1.5,1.2,1.5,1.8c0,1.3-1.6,3.9-4.8,7.9
		c-4.4,5.4-8.4,8-12.1,8c-2.7,0-4.1-1.8-4.1-5.5c0-1.1,0.1-2.7,0.4-4.6l0.6-4.5l0.7-4.9L396.3,103.3z M399.5,81.2
		c-3.4-1.9-6.8-2.8-10.3-2.8c-5.2,0-9.6,3.2-13.1,9.5s-5.3,14.2-5.3,23.7c0,4.8,1.4,7.3,4.3,7.3c3.3,0,7.3-2.5,12-7.6
		c6.3-6.8,10.2-14.8,11.5-24L399.5,81.2z"/>
	<path d="M435.4,123.5l-8.4,3.4l0.2-1.6l0.4-4.1l0.4-3.9l2.9-25.9l0.3-3c0.2-2.3,0.3-4.2,0.3-5.6c0-2.4-0.6-3.6-1.8-3.6
		c-2.8,0-5.8,3.2-9,9.5c-0.9-0.7-1.3-1.3-1.3-1.8c0-2.2,2-5.3,6.1-9.1c4.1-3.9,7.3-5.8,9.6-5.8c3.2,0,4.8,2,4.8,6.1
		c0,1-0.1,2.4-0.3,4.2l-0.4,4.5l-0.5,3.8l-0.5,4c4.4-6.6,9.2-12,14.4-16.2s9.7-6.4,13.4-6.4c3.6,0,5.4,2.5,5.4,7.5
		c0,1.5-0.2,3.8-0.6,6.9l-3,20.8c-0.6,4.2-0.9,7.5-0.9,9.9c0,1.9,0.5,2.9,1.6,2.9c2.6,0,5.7-3.4,9.5-10.2c0.9,0.6,1.3,1.1,1.3,1.7
		c0,2.4-2.1,5.6-6.2,9.5c-4.2,3.9-7.5,5.9-10.2,5.9c-2.9,0-4.4-2.1-4.4-6.3c0-3.1,0.4-7.3,1.2-12.7l2-13.5c0.6-4.4,0.9-7.9,0.9-10.4
		c0-2.9-1-4.4-3.1-4.4c-4.8,0-9.6,3.2-14.5,9.7c-4.9,6.5-7.7,13.4-8.6,20.8L435.4,123.5z"/>
	<path d="M576.2,106c0.9,0.4,1.3,1,1.3,1.8c0,2.5-2.3,5.7-6.8,9.7c-7.6,6.8-16.3,10.2-26,10.2c-7.9,0-14.1-2.8-18.8-8.5
		c-4.7-5.7-7-13.3-7-22.9c0-13.7,4.4-25.1,13.1-34.4c8.8-9.2,19.6-13.9,32.6-13.9c6.6,0,13.4,1.2,20.5,3.7l-3.7,8.2l-1.1,2.4
		c-0.9,1.9-2,2.8-3.3,2.8c-0.3,0-0.7-0.1-1.2-0.2c0.5-1.1,0.8-2.1,0.8-2.8c0-2.5-1.7-4.7-5-6.5s-7.2-2.8-11.7-2.8
		c-9.1,0-16.5,3.6-22.2,10.8c-5.7,7.2-8.5,16.5-8.5,28c0,8.9,2,16,6,21.3c4,5.3,9.3,7.9,16,7.9c4.8,0,9.6-1.4,14.4-4.3
		C570.4,113.8,573.9,110.2,576.2,106z"/>
	<path d="M593.6,127.8c-1.6-3.5-3.8-6.2-6.5-7.9l8.2-7.9c2.4,1.8,4.6,4.5,6.5,7.9L593.6,127.8z"/>
	<path d="M702.8,106c0.9,0.4,1.3,1,1.3,1.8c0,2.5-2.3,5.7-6.8,9.7c-7.6,6.8-16.3,10.2-26,10.2c-7.9,0-14.1-2.8-18.8-8.5
		c-4.7-5.7-7-13.3-7-22.9c0-13.7,4.4-25.1,13.1-34.4c8.8-9.2,19.6-13.9,32.6-13.9c6.6,0,13.4,1.2,20.5,3.7l-3.7,8.2l-1.1,2.4
		c-0.9,1.9-2,2.8-3.3,2.8c-0.3,0-0.7-0.1-1.2-0.2c0.5-1.1,0.8-2.1,0.8-2.8c0-2.5-1.7-4.7-5-6.5S691,53,686.5,53
		c-9.1,0-16.5,3.6-22.2,10.8c-5.7,7.2-8.5,16.5-8.5,28c0,8.9,2,16,6,21.3c4,5.3,9.3,7.9,16,7.9c4.8,0,9.6-1.4,14.4-4.3
		C697,113.8,700.5,110.2,702.8,106z"/>
	<path d="M729.1,94.6c4.4-6.6,9.2-12,14.4-16.2S753.2,72,757,72c3.6,0,5.4,2.5,5.4,7.5c0,1.5-0.2,3.8-0.6,6.9l-3,20.8
		c-0.6,4.2-0.9,7.5-0.9,9.9c0,1.9,0.5,2.9,1.6,2.9c2.6,0,5.7-3.4,9.5-10.2c0.9,0.6,1.4,1.1,1.4,1.7c0,2.4-2.1,5.6-6.2,9.5
		c-4.2,3.9-7.5,5.9-10.1,5.9c-2.9,0-4.4-2.1-4.4-6.3c0-3.1,0.4-7.3,1.2-12.7l1.9-13.5c0.6-4.4,1-8,1-10.6c0-2.9-1-4.3-3.1-4.3
		c-4.8,0-9.6,3.2-14.4,9.7c-4.9,6.5-7.7,13.4-8.6,20.8l-1.5,13.4l-8.4,3.4l0.2-1.6l0.4-4.1l0.4-3.9l5.4-49
		c1.3-11.6,5.6-21.4,12.8-29.6c7.3-8.2,15.4-12.3,24.3-12.3c1.9,0,3.7,0.2,5.4,0.6l-8.2,8c-2.1-0.6-4.1-0.9-6-0.9
		c-11.1,0-17.5,8.6-19.5,25.9L729.1,94.6z"/>
	<path d="M809.4,107.7c0.9,0.6,1.4,1.4,1.4,2.2c0,1.2-1.2,3.1-3.6,5.9c-6.4,7.4-12.7,11.1-18.9,11.1c-3.8,0-6.9-1.5-9.4-4.5
		c-2.5-3-3.7-6.9-3.7-11.6c0-8.5,3.2-17.1,9.6-25.8c6.4-8.7,12.8-13,19.1-13c4.5,0,6.8,2.4,6.8,7.3c0,5.5-2.7,10.8-8,16
		c-5.3,5.2-11.8,8.8-19.4,10.9c0.7,8.9,4.3,13.4,10.6,13.4C800.3,119.7,805.4,115.7,809.4,107.7z M783.7,99.4c1.1,0.4,2.1,0.6,3,0.6
		c4.6,0,8.7-1.4,12.1-4.2s5.2-6.1,5.2-9.9c0-4.4-2.2-6.5-6.6-6.5c-3.2,0-6.1,1.9-8.7,5.7C786,88.8,784.4,93.6,783.7,99.4z"/>
	<path d="M833.1,123.5l-8.4,3.4l0.2-1.6l0.4-4.1l0.4-3.9l2.9-25.9l0.3-3c0.2-2.3,0.3-4.2,0.3-5.6c0-2.4-0.6-3.6-1.8-3.6
		c-2.8,0-5.8,3.2-9,9.5c-0.9-0.7-1.3-1.3-1.3-1.8c0-2.2,2-5.3,6.1-9.1c4.1-3.9,7.3-5.8,9.6-5.8c3.2,0,4.8,2,4.8,6.1
		c0,1-0.1,2.4-0.3,4.2l-0.4,4.5l-0.5,3.8l-0.5,4c4.4-6.6,9.2-12,14.4-16.2c5.2-4.3,9.7-6.4,13.4-6.4c3.6,0,5.4,2.5,5.4,7.5
		c0,1.5-0.2,3.8-0.6,6.9l-3,20.8c-0.6,4.2-0.9,7.5-0.9,9.9c0,1.9,0.5,2.9,1.6,2.9c2.6,0,5.7-3.4,9.5-10.2c0.9,0.6,1.3,1.1,1.3,1.7
		c0,2.4-2.1,5.6-6.2,9.5c-4.2,3.9-7.5,5.9-10.2,5.9c-2.9,0-4.4-2.1-4.4-6.3c0-3.1,0.4-7.3,1.2-12.7l2-13.5c0.6-4.4,1-7.9,1-10.4
		c0-2.9-1-4.4-3.1-4.4c-4.8,0-9.6,3.2-14.5,9.7c-4.9,6.5-7.7,13.4-8.6,20.8L833.1,123.5z"/>
</g>
</svg>
