<?xml version="1.0" encoding="utf-8"?>
<!-- Generator: Adobe Illustrator 18.0.0, SVG Export Plug-In . SVG Version: 6.00 Build 0)  -->
<!DOCTYPE svg PUBLIC "-//W3C//DTD SVG 1.1//EN" "http://www.w3.org/Graphics/SVG/1.1/DTD/svg11.dtd">
<svg version="1.1" id="Layer_1" xmlns="http://www.w3.org/2000/svg" xmlns:xlink="http://www.w3.org/1999/xlink" x="0px" y="0px"
   viewBox="0 0 960 560" enable-background="new 0 0 960 560" xml:space="preserve">
<g>
  <path fill="none" stroke="#1A4DA6" stroke-miterlimit="10" d="M157.9,512c0,0,108.7-148.6,74.6-394.9"/>
  <path fill="none" stroke="#1A4DA6" stroke-miterlimit="10" d="M245.5,117.5c22.9,2,38.2,32.6,31.4,52.5"/>
  <path fill="none" stroke="#1A4DA6" stroke-miterlimit="10" d="M220.1,117.5c-35.8,10.6-27.5,51.9-27.5,51.9"/>
  <path fill="none" stroke="#1A4DA6" stroke-miterlimit="10" d="M212.9,102.5c-19.3-12.1-75.2,15.3-78.6,32"/>
  <path fill="none" stroke="#1A4DA6" stroke-miterlimit="10" d="M220.1,87.3c0,0-7.9-48-27-53.1"/>
  <path fill="none" stroke="#1A4DA6" stroke-miterlimit="10" d="M239.2,88.2c0-10.2,12.6-51.4,26-48.3"/>
  <path fill="none" stroke="#1A4DA6" stroke-miterlimit="10" d="M251.5,101.9c2.3-11.5,49.7-2.1,46.1,9.1"/>
  <circle fill="none" stroke="#1A4DA6" stroke-miterlimit="10" cx="229.4" cy="104.3" r="10.2"/>
</g>
<g>
  <path fill="none" stroke="#1A4DA6" stroke-miterlimit="10" d="M106.1,441.2c0,0-69.2-103.1-39.2-267.8"/>
  <path fill="none" stroke="#1A4DA6" stroke-miterlimit="10" d="M58.2,173.3c-15.5,0.7-26.7,20.9-22.6,34.5"/>
  <path fill="none" stroke="#1A4DA6" stroke-miterlimit="10" d="M75.4,174c23.9,8.1,17.1,35.7,17.1,35.7"/>
  <path fill="none" stroke="#1A4DA6" stroke-miterlimit="10" d="M80.6,164.1c13.4-7.6,50.3,12.4,52.2,23.7"/>
  <path fill="none" stroke="#1A4DA6" stroke-miterlimit="10" d="M76.2,153.7c0,0,6.7-32.1,19.7-35"/>
  <path fill="none" stroke="#1A4DA6" stroke-miterlimit="10" d="M63.3,153.8c0.3-6.8-7.1-34.9-16.2-33.2"/>
  <path fill="none" stroke="#1A4DA6" stroke-miterlimit="10" d="M54.6,162.6c-1.2-7.8-33.4-2.8-31.4,4.8"/>

    <ellipse transform="matrix(0.9991 4.174715e-02 -4.174715e-02 0.9991 6.9451 -2.7558)" fill="none" stroke="#1A4DA6" stroke-miterlimit="10" cx="69.5" cy="164.9" rx="6.9" ry="6.8"/>
</g>
<g>
  <path fill="none" stroke="#1A4DA6" stroke-miterlimit="10" d="M805,512c0,0-108.7-148.6-74.6-394.9"/>
  <path fill="none" stroke="#1A4DA6" stroke-miterlimit="10" d="M717.5,117.5c-22.9,2-38.2,32.6-31.4,52.5"/>
  <path fill="none" stroke="#1A4DA6" stroke-miterlimit="10" d="M742.9,117.5c35.8,10.6,27.5,51.9,27.5,51.9"/>
  <path fill="none" stroke="#1A4DA6" stroke-miterlimit="10" d="M750,102.5c19.3-12.1,75.2,15.3,78.6,32"/>
  <path fill="none" stroke="#1A4DA6" stroke-miterlimit="10" d="M742.9,87.3c0,0,7.9-48,27-53.1"/>
  <path fill="none" stroke="#1A4DA6" stroke-miterlimit="10" d="M723.8,88.2c0-10.2-12.6-51.4-26-48.3"/>
  <path fill="none" stroke="#1A4DA6" stroke-miterlimit="10" d="M711.4,101.9c-2.3-11.5-49.7-2.1-46.1,9.1"/>
  <circle fill="none" stroke="#1A4DA6" stroke-miterlimit="10" cx="733.6" cy="104.3" r="10.2"/>
</g>
<g>
  <path fill="none" stroke="#1A4DA6" stroke-miterlimit="10" d="M856.8,441.2c0,0,69.2-103.1,39.2-267.8"/>
  <path fill="none" stroke="#1A4DA6" stroke-miterlimit="10" d="M904.7,173.3c15.5,0.7,26.7,20.9,22.6,34.5"/>
  <path fill="none" stroke="#1A4DA6" stroke-miterlimit="10" d="M887.6,174c-23.9,8.1-17.1,35.7-17.1,35.7"/>
  <path fill="none" stroke="#1A4DA6" stroke-miterlimit="10" d="M882.3,164.1c-13.4-7.6-50.3,12.4-52.2,23.7"/>
  <path fill="none" stroke="#1A4DA6" stroke-miterlimit="10" d="M886.7,153.7c0,0-6.7-32.1-19.7-35"/>
  <path fill="none" stroke="#1A4DA6" stroke-miterlimit="10" d="M899.6,153.8c-0.3-6.8,7.1-34.9,16.2-33.2"/>
  <path fill="none" stroke="#1A4DA6" stroke-miterlimit="10" d="M908.4,162.6c1.2-7.8,33.4-2.8,31.4,4.8"/>

    <ellipse transform="matrix(-0.9991 4.174703e-02 -4.174703e-02 -0.9991 1793.051 292.3788)" fill="none" stroke="#1A4DA6" stroke-miterlimit="10" cx="893.5" cy="164.9" rx="6.9" ry="6.8"/>
</g>
</svg>
