<?xml version="1.0" encoding="utf-8"?>
<!-- Generator: Adobe Illustrator 18.0.0, SVG Export Plug-In . SVG Version: 6.00 Build 0)  -->
<!DOCTYPE svg PUBLIC "-//W3C//DTD SVG 1.1//EN" "http://www.w3.org/Graphics/SVG/1.1/DTD/svg11.dtd">
<svg version="1.1" id="Layer_1" xmlns="http://www.w3.org/2000/svg" xmlns:xlink="http://www.w3.org/1999/xlink" x="0px" y="0px"
	 viewBox="0 0 640 480" enable-background="new 0 0 640 480" xml:space="preserve">
<g id="Page_1">
	<g id="Layer_1_1_">
		<path id="Shape_1_" fill="#1A4DA6" d="M198.3,374.9L171.3,71.3l148.7,10l148.7-10L441.6,375L320,408.7L198.3,374.9z"/>
		<path id="Shape_2_" fill="#4F8CF7" d="M320,383.4l98.4-27.3l23.2-259.4l-121.6,10V383.4z"/>
	</g>
</g>
<path id="Shape_11_" fill="#1A4DA6" d="M347.6,347.8l0.1,0l66.3-18.4l4.5-50.8h-15h-17.5l-2.3,25.8l-36,9.7l-0.1,0V347.8z"/>
<polygon fill="#1A4DA6" points="360,344.3 360,127.6 328,130.2 328,353.2 "/>
<path id="Shape_5_" fill="#4F8CF7" d="M291.5,313.7l-0.1,0l-36-9.7l-2.3-25.8h-17.5h-15l4.5,50.8l66.3,18.4l0.1,0V313.7z"/>
<polygon fill="#4F8CF7" points="280,344.3 280,127.6 312,130.2 312,353.2 "/>
<path id="Shape_4_" fill="#1A4DA6" d="M356.7,160.4l38.6-1.3l-2.1,28.6l33.1-0.2l6-65.8l-76,6.2L356.7,160.4z"/>
</svg>
