<?xml version="1.0" encoding="utf-8"?>
<!-- Generator: Adobe Illustrator 18.0.0, SVG Export Plug-In . SVG Version: 6.00 Build 0)  -->
<!DOCTYPE svg PUBLIC "-//W3C//DTD SVG 1.1//EN" "http://www.w3.org/Graphics/SVG/1.1/DTD/svg11.dtd">
<svg version="1.1" id="Layer_1" xmlns="http://www.w3.org/2000/svg" xmlns:xlink="http://www.w3.org/1999/xlink" x="0px" y="0px"
	 viewBox="0 0 1200 5000" enable-background="new 0 0 1200 5000" xml:space="preserve">
<polygon fill="none" stroke="#1A4DA6" stroke-width="4" stroke-miterlimit="10" points="67.7,41 88.5,37.7 97.7,18.7 107.2,37.5 
	128.1,40.4 113.2,55.2 117,76 98.2,66.4 79.6,76.4 82.9,55.6 "/>
<line fill="none" stroke="#1A4DA6" stroke-width="4" stroke-miterlimit="10" x1="98" y1="50" x2="102" y2="850"/>
<line fill="none" stroke="#1A4DA6" stroke-width="4" stroke-miterlimit="10" x1="598" y1="1316" x2="1096" y2="1316"/>
<line fill="none" stroke="#1A4DA6" stroke-width="4" stroke-miterlimit="10" x1="102" y1="850.5" x2="599" y2="1315"/>
<line fill="none" stroke="#1A4DA6" stroke-width="4" stroke-miterlimit="10" x1="101" y1="1316" x2="599" y2="1316"/>
<line fill="none" stroke="#1A4DA6" stroke-width="4" stroke-miterlimit="10" x1="100" y1="1316" x2="100" y2="1416"/>
<line fill="none" stroke="#1A4DA6" stroke-width="4" stroke-miterlimit="10" x1="99" y1="1417" x2="699" y2="1417"/>
<line fill="none" stroke="#1A4DA6" stroke-width="4" stroke-miterlimit="10" x1="1095" y1="1316" x2="1095" y2="1416"/>
<line fill="none" stroke="#1A4DA6" stroke-width="4" stroke-miterlimit="10" x1="1095" y1="1417" x2="699" y2="1417"/>
<line fill="none" stroke="#1A4DA6" stroke-width="4" stroke-miterlimit="10" x1="699" y1="1416.5" x2="1095.5" y2="1813"/>
<line fill="none" stroke="#1A4DA6" stroke-width="4" stroke-miterlimit="10" x1="1095" y1="1813" x2="1095" y2="2613"/>
</svg>
