<?xml version="1.0" encoding="utf-8"?>
<!-- Generator: Adobe Illustrator 18.0.0, SVG Export Plug-In . SVG Version: 6.00 Build 0)  -->
<!DOCTYPE svg PUBLIC "-//W3C//DTD SVG 1.1//EN" "http://www.w3.org/Graphics/SVG/1.1/DTD/svg11.dtd">
<svg version="1.1" id="Layer_1" xmlns="http://www.w3.org/2000/svg" xmlns:xlink="http://www.w3.org/1999/xlink" x="0px" y="0px"
	 viewBox="0 0 150 150" enable-background="new 0 0 150 150" xml:space="preserve">
<ellipse fill="#603813" cx="75.7" cy="76.9" rx="54.2" ry="50.7"/>
<path fill="#754C24" stroke="#42210B" stroke-width="3" stroke-miterlimit="10" d="M147.3,68.8c-0.4-5.2-2.7-10.9-5.8-16.6
	c-3.4-6.2-20-28.1-23.1-32.2c-4.7-6.1-7.7-10.9-6.9-13.2c1.2-3.5-12.5-1.9-27.6,0.7c-5.8,1-16.7-1.9-14.7,5.9
	c2.1,7.7-21.2,1.6-21.2,1.6s-26.3,7.9-21.5,12.7c2.9,2.9-22.7,34-22.4,41.2c0.7,19.6,13.9,47,14.4,41.2c0.5-5.8,14.4,14,21.5,20.9
	c8.1,7.9,48.9,6.2,48.2,11.1c-0.7,4.8,28.9-4.1,23.4-11.1c-6.2-7.8,21.2-25.1,16.9-30.5C124.1,95,148.2,79.3,147.3,68.8z M29.1,90.8
	c-2.3,0-4.1-1.8-4.1-4.1s1.8-4.1,4.1-4.1c2.3,0,4.1,1.8,4.1,4.1C33.2,89,31.4,90.8,29.1,90.8z M62.2,83.3c-3.8,0-6.8-3-6.8-6.8
	c0-3.8,3.1-6.8,6.8-6.8s6.8,3.1,6.8,6.8C69.1,80.2,66,83.3,62.2,83.3z M53.5,55.8c-4.5,5.4-11,7.4-14.4,4.6c-3.4-2.9-2.6-9.6,1.9-15
	c4.5-5.4,11-7.5,14.4-4.6C58.9,43.7,58.1,50.4,53.5,55.8z M85.8,125.2c-6.6,0-12-5.4-12-12c0-6.6,5.4-12,12-12c6.6,0,12,5.4,12,12
	C97.8,119.8,92.4,125.2,85.8,125.2z M120.2,66.2c2.8,0,5,2.2,5,5c0,2.8-2.2,5-5,5s-5-2.3-5-5S117.4,66.2,120.2,66.2z M91.3,48.2
	c0-5.1,5.4-9.2,12-9.2c6.6,0,12,4.1,12,9.2s-5.4,9.2-12,9.2C96.7,57.4,91.3,53.3,91.3,48.2z"/>
</svg>
