<?xml version="1.0" encoding="utf-8"?>
<!-- Generator: Adobe Illustrator 18.0.0, SVG Export Plug-In . SVG Version: 6.00 Build 0)  -->
<!DOCTYPE svg PUBLIC "-//W3C//DTD SVG 1.1//EN" "http://www.w3.org/Graphics/SVG/1.1/DTD/svg11.dtd">
<svg version="1.1" id="Layer_1" xmlns="http://www.w3.org/2000/svg" xmlns:xlink="http://www.w3.org/1999/xlink" x="0px" y="0px"
	 viewBox="0 0 1100 300" enable-background="new 0 0 1100 300" xml:space="preserve">
<path fill="#E6E6E6" stroke="#C1272D" stroke-width="5" stroke-miterlimit="10" d="M441.8,51.7c0,0-23.6-56.7-132.3-47.2
	c30.4,17.5,32.4,80.3,32.4,80.3L441.8,51.7z"/>
<path fill="#E6E6E6" stroke="#C1272D" stroke-width="5" stroke-miterlimit="10" d="M441.8,248.3c0,0-23.6,56.7-132.3,47.2
	c30.4-17.5,32.4-80.3,32.4-80.3L441.8,248.3z"/>
<path fill="#E6E6E6" stroke="#C1272D" stroke-width="5" stroke-miterlimit="10" d="M307.5,101.2v97.2c0,0,291.2,194,485.9-48.6
	C598.7-93.1,307.5,101.2,307.5,101.2z"/>
<g id="Page_1">
	<g id="Layer_1_1_">
		<path id="Shape_1_" fill="#1572B6" d="M397.3,95.9l135.1-12l-4.5,66.2l4.5,66.2l-135.1-12l-15-54.1L397.3,95.9z"/>
		<path id="Shape_2_" fill="#33A9DC" d="M393.5,150l12.2,43.8l115.4,10.3l-4.5-54.1H393.5z"/>
	</g>
</g>
<path id="Shape_11_" fill="#FFFFFF" d="M409.3,162.3L409.3,162.3l8.2,29.6l22.6,2v-6.6v-7.8l-11.5-1l-4.3-16v-0.1L409.3,162.3
	L409.3,162.3z"/>
<polygon fill="#FFFFFF" points="410.9,167.6 507.3,167.6 506.1,153.5 406.9,153.5 "/>
<path id="Shape_5_" fill="#EBEBEB" d="M424.5,137.3L424.5,137.3l4.3-16.1l11.5-1v-7.8v-6.6l-22.6,2l-8.2,29.5v0.1L424.5,137.3
	L424.5,137.3z"/>
<polygon fill="#EBEBEB" points="410.9,132 507.3,132 506.1,146.5 406.9,146.5 "/>
<path id="Shape_4_" fill="#FFFFFF" d="M492.7,166.3l1.5,17.2l-13.6-0.9l0.1,14.7l29.3,2.7l-2.8-33.8L492.7,166.3z"/>
<circle fill="#FCEE21" stroke="#C1272D" stroke-width="5" stroke-miterlimit="10" cx="632.7" cy="150" r="55"/>
<polygon fill="#F15A24" stroke="#C1272D" stroke-miterlimit="10" points="294.5,198.6 294.5,100.1 232.6,56.3 252.4,100.1 
	211.5,89.3 246.3,128 185.8,145 245.8,169.8 209.1,197 251.3,197.7 226.9,243 "/>
<polygon fill="#FBB03B" points="294,191.1 294,108.8 250.2,75.7 269.2,113.7 234.2,102 264.8,135 222.5,147 265.7,166 234.1,188.3 
	267.8,190 248.2,221.3 "/>
<polygon fill="#FCEE21" points="294,182.4 294,117.1 270.9,100 280.5,125.3 261.2,120 278.8,142.7 247.8,149.3 278.8,164 259.5,181 
	281.5,179 264.2,205.3 "/>
</svg>
