<?xml version="1.0" encoding="utf-8"?>
<!-- Generator: Adobe Illustrator 18.0.0, SVG Export Plug-In . SVG Version: 6.00 Build 0)  -->
<!DOCTYPE svg PUBLIC "-//W3C//DTD SVG 1.1//EN" "http://www.w3.org/Graphics/SVG/1.1/DTD/svg11.dtd">
<svg version="1.1" id="Layer_1" xmlns="http://www.w3.org/2000/svg" xmlns:xlink="http://www.w3.org/1999/xlink" x="0px" y="0px"
	 viewBox="0 0 1100 300" enable-background="new 0 0 1100 300" xml:space="preserve">
<path fill="#E6E6E6" stroke="#C1272D" stroke-width="5" stroke-miterlimit="10" d="M442.1,51.7c0,0-23.6-56.7-132.3-47.2
	c30.4,17.5,32.4,80.3,32.4,80.3L442.1,51.7z"/>
<path fill="#E6E6E6" stroke="#C1272D" stroke-width="5" stroke-miterlimit="10" d="M442.1,248.3c0,0-23.6,56.7-132.3,47.2
	c30.4-17.5,32.4-80.3,32.4-80.3L442.1,248.3z"/>
<path fill="#E6E6E6" stroke="#C1272D" stroke-width="5" stroke-miterlimit="10" d="M307.5,101.2v97.2c0,0,291.2,194,485.9-48.6
	C598.7-93.1,307.5,101.2,307.5,101.2z"/>
<g id="Page_1">
	<g id="Layer_1_1_">
		<path id="Shape_1_" fill="#1572B6" d="M397.6,95.9l135.1-12l-4.5,66.2l4.5,66.2l-135.1-12l-15-54.1L397.6,95.9z"/>
		<path id="Shape_2_" fill="#33A9DC" d="M393.9,150l12.2,43.8l115.4,10.3L517,150H393.9z"/>
	</g>
</g>
<path id="Shape_11_" fill="#FFFFFF" d="M409.7,162.3L409.7,162.3l8.2,29.6l22.6,2v-6.6v-7.8l-11.5-1l-4.3-16v-0.1L409.7,162.3
	L409.7,162.3z"/>
<polygon fill="#FFFFFF" points="411.2,167.6 507.7,167.6 506.5,153.5 407.3,153.5 "/>
<polygon fill="#F15A24" stroke="#C1272D" stroke-miterlimit="10" points="294.5,198.6 294.5,100.1 102.3,25 171.7,100.1 47,66.5 
	153.8,128 -0.4,145.5 152.5,169.8 46.1,212.5 168.6,197.7 103.3,272 "/>
<polygon fill="#FBB03B" points="294,191.1 294,108.8 154.3,61.5 222.2,116.9 117,98 211.8,137.4 58.6,147.5 211.1,166 108.1,196 
	220.5,186.5 146.3,240 "/>
<polygon fill="#FCEE21" points="294,182.4 294,117.1 207.8,90.5 256.3,128.4 182,117 248.9,144.9 142.6,149 248.5,160.6 187.1,182 
	253.7,171.8 204.3,210 "/>
<path id="Shape_5_" fill="#EBEBEB" d="M424.9,137.3L424.9,137.3l4.3-16.1l11.5-1v-7.8v-6.6l-22.6,2l-8.2,29.5v0.1L424.9,137.3
	L424.9,137.3z"/>
<polygon fill="#EBEBEB" points="411.2,132 507.7,132 506.5,146.5 407.3,146.5 "/>
<path id="Shape_4_" fill="#FFFFFF" d="M493.1,166.3l1.5,17.2l-13.6-0.9l0.1,14.7l29.3,2.7l-2.8-33.8L493.1,166.3z"/>
<circle fill="#FCEE21" stroke="#C1272D" stroke-width="5" stroke-miterlimit="10" cx="633.1" cy="150" r="55"/>
</svg>
