<?xml version="1.0" encoding="iso-8859-1"?>
<!-- Generator: Adobe Illustrator 16.0.0, SVG Export Plug-In . SVG Version: 6.00 Build 0)  -->
<!DOCTYPE svg PUBLIC "-//W3C//DTD SVG 1.1//EN" "http://www.w3.org/Graphics/SVG/1.1/DTD/svg11.dtd">
<svg version="1.1" id="Capa_1" xmlns="http://www.w3.org/2000/svg" xmlns:xlink="http://www.w3.org/1999/xlink" x="0px" y="0px"
	 width="50px" height="50px" viewBox="0 0 50 50" style="enable-background:new 0 0 50 50;" xml:space="preserve">
<g>
	<path style="fill:#B51832;" d="M46.37,28.542l-3.894-3.504c-0.933-1.207-2.58-0.991-4.17-0.779c-1.457,0.189-2.963,0.389-3.8-0.449
		c-0.789-0.788-0.727-2.321-0.674-3.676c0.06-1.523,0.116-2.959-0.946-3.628c-3.697-2.548-8.786-2.167-12.039,0.805L7.248,5.267
		L8.656,3.86c0.232-0.231,0.611-0.231,0.842,0.002c0.232,0.231,0.538,0.302,0.682,0.157s0.073-0.45-0.159-0.682L9.19,2.507
		c-0.23-0.231-0.61-0.233-0.84,0L6.368,4.489l-0.642-0.57l2.019-2.015c0.232-0.231,0.231-0.611,0.003-0.839L6.916,0.231
		C6.686,0.002,6.379-0.07,6.234,0.074C6.09,0.216,6.163,0.526,6.394,0.755c0.232,0.231,0.23,0.611,0,0.843L4.846,3.144l-0.3-0.268
		c0.128-0.673-0.028-1.393-0.551-1.913C3.157,0.122,1.798,0.122,0.961,0.959C0.123,1.8,0.124,3.16,0.962,3.997
		c0.523,0.522,1.244,0.68,1.92,0.546l0.265,0.301l-1.55,1.551C1.366,6.626,0.986,6.626,0.755,6.396
		C0.523,6.163,0.218,6.091,0.076,6.235c-0.144,0.146-0.075,0.449,0.156,0.679l0.832,0.832c0.231,0.231,0.611,0.231,0.841,0
		l2.022-2.023l0.566,0.642L2.507,8.348c-0.23,0.231-0.231,0.609-0.002,0.841l0.83,0.832c0.234,0.229,0.54,0.303,0.683,0.157
		c0.145-0.145,0.071-0.45-0.158-0.682C3.627,9.269,3.628,8.889,3.859,8.655l1.414-1.412l12.044,13.599
		c-2.979,3.25-3.357,8.348-0.808,12.051c0.493,0.711,1.52,0.709,2.939,0.705c1.532-0.006,3.442-0.01,4.36,0.909
		c0.881,0.881,0.716,2.325,0.541,3.857c-0.169,1.466-0.341,2.983,0.582,4.016l3.607,3.988c1.958,2.161,5.074,3.555,8.132,3.629
		c2.353,0.059,4.429-0.694,5.856-2.119l5.35-5.35c1.428-1.429,2.18-3.508,2.12-5.859C49.921,33.611,48.529,30.497,46.37,28.542z
		 M41.338,46.688c-1.406,1.406-3.291,1.662-4.625,1.63c-2.575-0.065-5.293-1.273-6.927-3.076l-3.606-3.989
		c-0.417-0.465-0.292-1.548-0.161-2.693c0.193-1.689,0.435-3.785-1.021-5.243c-1.414-1.412-3.806-1.405-5.554-1.399
		c-0.618,0.002-1.459,0.006-1.553,0.02c-2.074-3.011-1.802-7.134,0.55-9.822l7.059,7.972l0.91-0.911l8.695,8.696l-0.483,0.481
		l8.08,6.975L41.338,46.688z M36.759,36.214l-0.547,0.546l-8.695-8.693l0.548-0.549L36.759,36.214z M28.345,27.236l0.546-0.546
		l8.697,8.694l-0.548,0.549L28.345,27.236z M35.932,37.04l-0.548,0.548l-8.696-8.693l0.549-0.548L35.932,37.04z M46.688,41.341
		l-1.362,1.361l-6.975-8.08l-0.483,0.483l-8.695-8.695l0.914-0.917l-7.969-7.06c2.686-2.35,6.809-2.619,9.845-0.522
		c0.269,0.166,0.223,1.412,0.191,2.155c-0.063,1.611-0.143,3.626,1.165,4.932c1.424,1.421,3.523,1.151,5.209,0.926
		c1.12-0.15,2.279-0.3,2.726,0.256l3.988,3.606c1.806,1.635,3.015,4.353,3.077,6.927C48.352,38.046,48.096,39.933,46.688,41.341z"/>
</g>
<g>
</g>
<g>
</g>
<g>
</g>
<g>
</g>
<g>
</g>
<g>
</g>
<g>
</g>
<g>
</g>
<g>
</g>
<g>
</g>
<g>
</g>
<g>
</g>
<g>
</g>
<g>
</g>
<g>
</g>
</svg>
