<?xml version="1.0" encoding="utf-8"?>
<!-- Generator: Adobe Illustrator 18.0.0, SVG Export Plug-In . SVG Version: 6.00 Build 0)  -->
<!DOCTYPE svg PUBLIC "-//W3C//DTD SVG 1.1//EN" "http://www.w3.org/Graphics/SVG/1.1/DTD/svg11.dtd">
<svg version="1.1" id="Layer_1" xmlns="http://www.w3.org/2000/svg" xmlns:xlink="http://www.w3.org/1999/xlink" x="0px" y="0px"
	 viewBox="0 0 512 512" enable-background="new 0 0 512 512" xml:space="preserve">
<path id="github-icon" fill="#FFFFFF" d="M256,0C114.6,0,0,117.5,0,262.5c0,116,73.4,214.4,175.1,249.1c12.8,2.4,16.9-5.7,16.9-12.6
	V450c-71.2,15.9-86-31-86-31c-11.6-30.4-28.4-38.4-28.4-38.4c-23.2-16.3,1.7-16,1.7-16c25.7,1.9,39.3,27.1,39.3,27.1
	c22.8,40.1,59.9,28.5,74.5,21.8c2.3-17,8.9-28.5,16.2-35.1c-56.9-6.6-116.6-29.1-116.6-129.7c0-28.7,10-52.1,26.4-70.4
	c-2.7-6.6-11.4-33.3,2.5-69.5c0,0,21.5-7,70.4,26.9c20.4-5.8,42.3-8.7,64.1-8.8c21.8,0.1,43.7,3,64.1,8.8
	c48.9-34,70.3-26.9,70.3-26.9c13.9,36.1,5.2,62.8,2.5,69.5c16.4,18.4,26.4,41.8,26.4,70.4c0,100.8-59.9,123-116.9,129.5
	c9.2,8.1,17.6,24.1,17.6,48.6c0,35.1,0,63.4,0,72c0,7,4.1,15.2,17.1,12.6C438.8,476.8,512,378.4,512,262.5C512,117.5,397.4,0,256,0z
	"/>
</svg>
